arm28_optimize_states
version=1
nRows=19
nColumns=21
inDegrees=yes

# SIMM Motion File Header:
name arm28_optimize_states
datacolumns 21
datarows 19
otherdata 1
range 0.06926666 0.07152901
endheader
time	r_shoulder_elev	r_elbow_flex	r_shoulder_elev_u	r_elbow_flex_u	TRIlong.activation	TRIlong.fiber_length	TRIlat.activation	TRIlat.fiber_length	TRImed.activation	TRImed.fiber_length	BIClong.activation	BIClong.fiber_length	BICshort.activation	BICshort.fiber_length	BRA.activation	BRA.fiber_length	DeltAnt.activation	DeltAnt.fiber_length	DeltPost.activation	DeltPost.fiber_length
      0.06926666	     29.66212017	     95.50731154	   -904.71742091	    546.21768740	      0.02534184	      0.18859443	      0.02534184	      0.10487463	      0.02534184	      0.09984741	      0.02534184	      0.10174250	      0.02534184	      0.12597104	      0.02534184	      0.07618391	      0.02534184	      0.14318686	      0.02534184	      0.13009331
      0.06939234	     29.54843419	     95.57577306	   -904.33804636	    543.19556030	      0.02531592	      0.18854659	      0.02531592	      0.10489303	      0.02531592	      0.09986573	      0.02531592	      0.10170338	      0.02531592	      0.12592638	      0.02531592	      0.07615490	      0.02531592	      0.14325206	      0.02531592	      0.13002473
      0.06951803	     29.43479658	     95.64385436	   -903.93290715	    540.15404937	      0.02529006	      0.18849863	      0.02529006	      0.10491133	      0.02529006	      0.09988393	      0.02529006	      0.10166427	      0.02529006	      0.12588172	      0.02529006	      0.07612590	      0.02529006	      0.14333730	      0.02529006	      0.12995624
      0.06964372	     29.32120951	     95.71155396	   -903.54897818	    537.13524522	      0.02526423	      0.18845052	      0.02526423	      0.10492950	      0.02526423	      0.09990202	      0.02526423	      0.10162516	      0.02526423	      0.12583706	      0.02526423	      0.07609689	      0.02526423	      0.14340274	      0.02526423	      0.12988783
      0.06976940	     29.20767134	     95.77887379	   -903.13948177	    534.09731507	      0.02523846	      0.18840230	      0.02523846	      0.10494757	      0.02523846	      0.09992000	      0.02523846	      0.10158605	      0.02523846	      0.12579241	      0.02523846	      0.07606789	      0.02523846	      0.14348785	      0.02523846	      0.12981950
      0.06989509	     29.09418425	     95.84581238	   -902.75117916	    531.08203191	      0.02521273	      0.18835394	      0.02521273	      0.10496552	      0.02521273	      0.09993787	      0.02521273	      0.10154694	      0.02521273	      0.12574776	      0.02521273	      0.07603889	      0.02521273	      0.14355292	      0.02521273	      0.12975126
      0.07002077	     28.98074664	     95.91237162	   -902.33718478	    528.04759301	      0.02518704	      0.18830546	      0.02518704	      0.10498336	      0.02518704	      0.09995562	      0.02518704	      0.10150784	      0.02518704	      0.12570311	      0.02518704	      0.07600989	      0.02518704	      0.14363797	      0.02518704	      0.12968307
      0.07014646	     28.86736067	     95.97855007	   -901.94442284	    525.03579186	      0.02516140	      0.18825685	      0.02516140	      0.10500109	      0.02516140	      0.09997326	      0.02516140	      0.10146874	      0.02516140	      0.12565847	      0.02516140	      0.07598090	      0.02516140	      0.14370295	      0.02516140	      0.12961498
      0.07027215	     28.75402473	     96.04434961	   -901.52597424	    522.00491914	      0.02513581	      0.18820812	      0.02513581	      0.10501871	      0.02513581	      0.09999079	      0.02513581	      0.10142964	      0.02513581	      0.12561383	      0.02513581	      0.07595190	      0.02513581	      0.14378791	      0.02513581	      0.12954699
      0.07039783	     28.64074101	     96.10976878	   -901.12860716	    518.99650728	      0.02511026	      0.18815926	      0.02511026	      0.10503621	      0.02511026	      0.10000821	      0.02511026	      0.10139055	      0.02511026	      0.12556920	      0.02511026	      0.07592291	      0.02511026	      0.14385293	      0.02511026	      0.12947908
      0.07052352	     28.52750791	     96.17480948	   -900.70531468	    515.96889210	      0.02508475	      0.18811028	      0.02508475	      0.10505360	      0.02508475	      0.10002551	      0.02508475	      0.10135145	      0.02508475	      0.12552456	      0.02508475	      0.07589392	      0.02508475	      0.14393812	      0.02508475	      0.12941125
      0.07064920	     28.41432760	     96.23947025	   -900.30390119	    512.96440003	      0.02505929	      0.18806117	      0.02505929	      0.10507088	      0.02505929	      0.10004271	      0.02505929	      0.10131237	      0.02505929	      0.12547993	      0.02505929	      0.07586493	      0.02505929	      0.14400278	      0.02505929	      0.12934350
      0.07077489	     28.30119842	     96.30375303	   -899.87652524	    509.94074769	      0.02503388	      0.18801194	      0.02503388	      0.10508806	      0.02503388	      0.10005980	      0.02503388	      0.10127328	      0.02503388	      0.12543531	      0.02503388	      0.07583595	      0.02503388	      0.14408745	      0.02503388	      0.12927583
      0.07090058	     28.18812258	     96.36765636	   -899.47000677	    506.93927346	      0.02500850	      0.18796259	      0.02500850	      0.10510512	      0.02500850	      0.10007677	      0.02500850	      0.10123420	      0.02500850	      0.12539068	      0.02500850	      0.07580697	      0.02500850	      0.14415223	      0.02500850	      0.12920826
      0.07102626	     28.07509850	     96.43118208	   -899.03796175	    503.91910209	      0.02498318	      0.18791311	      0.02498318	      0.10512207	      0.02498318	      0.10009364	      0.02498318	      0.10119512	      0.02498318	      0.12534606	      0.02498318	      0.07577798	      0.02498318	      0.14423689	      0.02498318	      0.12914075
      0.07115195	     27.96212835	     96.49432879	   -898.62687178	    500.92115379	      0.02495790	      0.18786352	      0.02495790	      0.10513891	      0.02495790	      0.10011039	      0.02495790	      0.10115604	      0.02495790	      0.12530145	      0.02495790	      0.07574900	      0.02495790	      0.14430158	      0.02495790	      0.12907331
      0.07127763	     27.84921054	     96.55709833	   -898.19004335	    497.90439817	      0.02493266	      0.18781380	      0.02493266	      0.10515564	      0.02493266	      0.10012704	      0.02493266	      0.10111696	      0.02493266	      0.12525683	      0.02493266	      0.07572003	      0.02493266	      0.14438633	      0.02493266	      0.12900598
      0.07140332	     27.73634725	     96.61948930	   -897.77432587	    494.90996144	      0.02490747	      0.18776397	      0.02490747	      0.10517227	      0.02490747	      0.10014358	      0.02490747	      0.10107789	      0.02490747	      0.12521222	      0.02490747	      0.07569105	      0.02490747	      0.14445092	      0.02490747	      0.12893874
      0.07152901	     27.62353687	     96.68150356	   -897.33310167	    491.89699422	      0.02488232	      0.18771402	      0.02488232	      0.10518878	      0.02488232	      0.10016001	      0.02488232	      0.10103882	      0.02488232	      0.12516761	      0.02488232	      0.07566208	      0.02488232	      0.14453536	      0.02488232	      0.12887158
